<mxfile host="www.draw.io" modified="2020-01-16T11:44:49.082Z" agent="Mozilla/5.0 (Macintosh; Intel Mac OS X 10_14_6) AppleWebKit/537.36 (KHTML, like Gecko) Chrome/79.0.3945.117 Safari/537.36" etag="yymGijGgYV18WSD2V49R" version="12.5.4" type="github">
  <diagram id="gZD3GhaqJtmUgJuXptB7" name="第 1 页">
    <mxGraphModel dx="1373" dy="773" grid="1" gridSize="10" guides="1" tooltips="1" connect="1" arrows="1" fold="1" page="1" pageScale="1" pageWidth="827" pageHeight="1169" math="0" shadow="0">
      <root>
        <mxCell id="0"/>
        <mxCell id="1" parent="0"/>
        <mxCell id="f1CG-zrmnWsXXwke2t2M-1" value="&lt;p style=&quot;margin: 0px ; margin-top: 4px ; text-align: center&quot;&gt;&lt;b&gt;AuthenticatesUsers&lt;/b&gt;&lt;/p&gt;&lt;hr size=&quot;1&quot;&gt;&lt;p style=&quot;margin: 0px ; margin-left: 4px&quot;&gt;+ showLoginForm&lt;/p&gt;&lt;p style=&quot;margin: 0px ; margin-left: 4px&quot;&gt;+&amp;nbsp;login&lt;/p&gt;&lt;p style=&quot;margin: 0px ; margin-left: 4px&quot;&gt;+&amp;nbsp;logout&lt;/p&gt;" style="verticalAlign=top;align=left;overflow=fill;fontSize=12;fontFamily=Helvetica;html=1;" vertex="1" parent="1">
          <mxGeometry x="100" y="100" width="160" height="80" as="geometry"/>
        </mxCell>
        <mxCell id="f1CG-zrmnWsXXwke2t2M-2" value="StatefulGuard" style="html=1;" vertex="1" parent="1">
          <mxGeometry x="320" y="370" width="110" height="50" as="geometry"/>
        </mxCell>
        <mxCell id="f1CG-zrmnWsXXwke2t2M-5" value="Use" style="endArrow=open;endSize=12;dashed=1;html=1;entryX=0.5;entryY=0;entryDx=0;entryDy=0;exitX=0.5;exitY=1;exitDx=0;exitDy=0;" edge="1" parent="1" source="f1CG-zrmnWsXXwke2t2M-1" target="f1CG-zrmnWsXXwke2t2M-2">
          <mxGeometry width="160" relative="1" as="geometry">
            <mxPoint x="180" y="260" as="sourcePoint"/>
            <mxPoint x="340" y="260" as="targetPoint"/>
          </mxGeometry>
        </mxCell>
        <mxCell id="f1CG-zrmnWsXXwke2t2M-6" value="&lt;p style=&quot;margin: 0px ; margin-top: 4px ; text-align: center&quot;&gt;RegistersUsers&lt;br&gt;&lt;/p&gt;&lt;hr size=&quot;1&quot;&gt;&lt;p style=&quot;margin: 0px ; margin-left: 4px&quot;&gt;+ showRegistrationForm&lt;/p&gt;&lt;p style=&quot;margin: 0px ; margin-left: 4px&quot;&gt;+&amp;nbsp;register&lt;/p&gt;" style="verticalAlign=top;align=left;overflow=fill;fontSize=12;fontFamily=Helvetica;html=1;" vertex="1" parent="1">
          <mxGeometry x="320" y="100" width="160" height="80" as="geometry"/>
        </mxCell>
        <mxCell id="f1CG-zrmnWsXXwke2t2M-7" value="Use" style="endArrow=open;endSize=12;dashed=1;html=1;exitX=0.5;exitY=1;exitDx=0;exitDy=0;" edge="1" parent="1" source="f1CG-zrmnWsXXwke2t2M-6" target="f1CG-zrmnWsXXwke2t2M-2">
          <mxGeometry width="160" relative="1" as="geometry">
            <mxPoint x="440" y="200" as="sourcePoint"/>
            <mxPoint x="635" y="390" as="targetPoint"/>
          </mxGeometry>
        </mxCell>
      </root>
    </mxGraphModel>
  </diagram>
</mxfile>
